<?xml version="1.0" standalone="no"?>
<!DOCTYPE svg PUBLIC "-//W3C//DTD SVG 20010904//EN"
 "http://www.w3.org/TR/2001/REC-SVG-20010904/DTD/svg10.dtd">
<svg version="1.0" xmlns="http://www.w3.org/2000/svg"
 width="496.000000pt" height="496.000000pt" viewBox="0 0 496.000000 496.000000"
 preserveAspectRatio="xMidYMid meet">

<g transform="translate(0.000000,496.000000) scale(0.100000,-0.100000)"
fill="#000000" stroke="none">
<path d="M2170 4874 c-685 -93 -1303 -478 -1681 -1047 -189 -285 -308 -586
-370 -932 -30 -169 -37 -510 -15 -685 37 -281 105 -510 225 -755 360 -734
1044 -1224 1854 -1330 154 -20 450 -20 604 0 693 91 1313 474 1694 1049 187
282 308 584 372 931 19 104 22 155 22 390 0 303 -13 405 -79 645 -254 924
-1048 1610 -2009 1735 -148 19 -472 18 -617 -1z m640 -109 c380 -54 746 -207
1065 -445 131 -97 341 -308 441 -442 673 -901 603 -2138 -166 -2951 -354 -374
-826 -617 -1347 -694 -162 -23 -475 -23 -638 1 -656 96 -1228 456 -1590 1001
-615 925 -475 2161 331 2924 385 364 874 579 1419 625 95 8 370 -3 485 -19z"/>
<path d="M2240 4629 c-368 -41 -736 -188 -1037 -413 -134 -99 -336 -300 -431
-428 -378 -506 -515 -1126 -385 -1743 84 -404 281 -764 582 -1066 327 -328
708 -524 1176 -606 141 -24 529 -24 670 0 450 79 826 267 1145 573 339 326
548 722 636 1209 26 143 26 537 0 680 -28 153 -72 316 -117 431 -294 752 -975
1277 -1771 1363 -112 13 -358 12 -468 0z m560 -114 c531 -89 993 -368 1310
-790 200 -267 328 -567 387 -910 24 -140 24 -500 0 -640 -116 -671 -515 -1213
-1113 -1513 -181 -90 -366 -150 -589 -189 -139 -24 -489 -24 -630 1 -431 74
-789 252 -1095 542 -318 303 -529 706 -607 1159 -24 140 -24 500 0 640 73 424
252 785 542 1093 307 326 756 557 1190 611 50 6 104 13 120 15 65 9 395 -4
485 -19z"/>
<path d="M2230 3844 c-436 -39 -621 -88 -825 -219 -203 -131 -370 -348 -435
-563 -43 -143 -17 -310 65 -418 l24 -32 -87 -32 c-231 -86 -301 -161 -242
-257 23 -39 84 -85 166 -125 l60 -31 12 -181 c17 -284 51 -378 185 -511 68
-68 98 -90 177 -128 138 -67 242 -89 415 -89 77 1 479 3 894 6 846 5 850 6
1001 77 162 77 299 250 346 439 18 68 22 243 9 337 l-7 51 92 48 c115 61 160
107 160 165 0 80 -51 129 -218 213 -51 26 -92 50 -90 54 67 129 72 147 76 244
4 79 0 110 -18 170 -65 215 -232 432 -435 563 -176 113 -347 166 -665 205 -87
11 -579 21 -660 14z m104 -181 c14 -180 27 -275 55 -384 32 -130 116 -339 135
-339 14 0 107 327 127 444 7 42 10 126 7 213 l-5 143 26 0 c31 -1 206 -17 271
-25 l45 -6 0 -162 c0 -100 5 -183 13 -217 25 -104 105 -370 111 -370 20 1 36
29 71 127 50 141 63 238 58 418 -2 107 0 145 9 145 26 0 177 -71 245 -116 194
-128 363 -363 399 -556 14 -79 7 -136 -29 -211 -28 -60 -125 -182 -152 -191
-18 -6 -387 -32 -645 -46 -246 -13 -784 -13 -1090 0 -321 14 -731 39 -747 46
-27 11 -124 135 -150 191 -36 75 -43 132 -29 211 36 193 205 428 399 556 74
49 219 116 251 116 15 0 18 -21 29 -172 7 -95 19 -202 27 -237 15 -63 107
-274 122 -278 10 -3 68 124 94 207 30 94 49 255 49 412 l0 136 78 7 c42 3 86
7 97 9 11 2 43 4 72 5 l51 1 6 -77z m-1149 -1174 c17 -9 44 -24 60 -33 17 -9
100 -41 185 -72 174 -62 488 -211 474 -224 -5 -4 -81 -48 -169 -96 l-160 -87
-350 176 c-192 98 -363 188 -380 202 -30 25 -30 26 -10 41 48 39 278 125 305
116 8 -3 29 -13 45 -23z m2834 -15 c72 -39 111 -71 111 -90 0 -22 -99 -76
-274 -150 -210 -88 -312 -138 -398 -197 l-65 -45 -159 65 c-87 35 -159 65
-161 66 -1 2 45 29 104 62 123 68 306 146 553 235 96 35 182 70 190 77 20 18
26 17 99 -23z m-540 -28 c-2 -2 -44 -20 -92 -40 -120 -49 -229 -105 -372 -189
-130 -77 -301 -160 -463 -226 l-102 -42 -208 134 c-273 176 -395 247 -533 308
l-114 50 125 -6 c678 -33 1157 -31 1620 4 58 5 114 9 124 10 11 0 17 -1 15 -3z
m415 -377 c22 -214 -26 -382 -146 -514 -72 -79 -150 -128 -250 -156 -82 -22
-89 -22 -823 -26 -407 -2 -816 -4 -910 -5 -149 -2 -180 1 -248 20 -227 64
-377 204 -422 393 -8 35 -18 124 -22 197 l-6 133 29 -11 c16 -6 131 -63 255
-127 l226 -115 221 121 222 121 142 -92 c79 -50 173 -110 210 -134 l66 -43
154 63 c84 34 200 85 258 112 l105 50 205 -83 c113 -46 215 -88 227 -94 18
-10 29 -5 80 33 88 67 175 117 297 169 61 26 114 48 117 48 3 1 9 -27 13 -60z"/>
</g>
</svg>
